<?xml version="1.0" encoding="UTF-8"?>
<!DOCTYPE svg PUBLIC "-//W3C//DTD SVG 1.1//EN" "http://www.w3.org/Graphics/SVG/1.1/DTD/svg11.dtd">
<svg xmlns="http://www.w3.org/2000/svg" version="1.1" width="2100px" height="2100px" style="shape-rendering:geometricPrecision; text-rendering:geometricPrecision; image-rendering:optimizeQuality; fill-rule:evenodd; clip-rule:evenodd" xmlns:xlink="http://www.w3.org/1999/xlink">
<g><path style="opacity:1" fill="#fefe00" d="M -0.5,-0.5 C 699.5,-0.5 1399.5,-0.5 2099.5,-0.5C 2099.5,699.5 2099.5,1399.5 2099.5,2099.5C 1399.5,2099.5 699.5,2099.5 -0.5,2099.5C -0.5,1399.5 -0.5,699.5 -0.5,-0.5 Z"/></g>
<g><path style="opacity:1" fill="#000000" d="M 1461.5,99.5 C 1461.78,120.523 1461.44,141.523 1460.5,162.5C 1457.47,172.198 1450.81,177.365 1440.5,178C 1396.49,178.112 1352.49,178.779 1308.5,180C 1280.2,182.075 1253.53,189.741 1228.5,203C 1198.97,222.54 1182.64,250.04 1179.5,285.5C 1178.7,286.952 1178.2,288.618 1178,290.5C 1177.17,333.335 1177.34,376.002 1178.5,418.5C 1286.48,424.998 1392.48,443.498 1496.5,474C 1607.73,507.103 1708.06,559.769 1797.5,632C 1841.88,668.706 1881.04,710.206 1915,756.5C 1942.97,797.311 1964.47,841.311 1979.5,888.5C 1979.41,891.152 1980.08,893.485 1981.5,895.5C 1985.62,910.224 1988.95,925.224 1991.5,940.5C 1992.09,946.037 1993.09,951.37 1994.5,956.5C 1999.48,998.4 1999.81,1040.4 1995.5,1082.5C 1994.78,1082.92 1994.28,1083.58 1994,1084.5C 1993.12,1090.5 1992.29,1096.5 1991.5,1102.5C 1988.76,1116.55 1985.76,1130.55 1982.5,1144.5C 1980.45,1147.01 1979.45,1150.01 1979.5,1153.5C 1978.08,1155.51 1977.41,1157.85 1977.5,1160.5C 1954.41,1227.35 1920.91,1288.35 1877,1343.5C 1796.18,1442.36 1697.01,1517.19 1579.5,1568C 1451.52,1623.98 1317.85,1657.48 1178.5,1668.5C 1178.04,1717.86 1178.54,1767.19 1180,1816.5C 1186.16,1866.66 1213.66,1898.16 1262.5,1911C 1277.29,1914.85 1292.29,1917.52 1307.5,1919C 1352.82,1920.22 1398.15,1920.88 1443.5,1921C 1453.04,1922.21 1459.21,1927.38 1462,1936.5C 1462.5,1957.5 1462.67,1978.5 1462.5,1999.5C 1187.5,1999.5 912.5,1999.5 637.5,1999.5C 637.333,1979.5 637.5,1959.5 638,1939.5C 638.505,1937.48 639.005,1935.48 639.5,1933.5C 642.3,1926.25 647.633,1922.08 655.5,1921C 693.167,1920.67 730.833,1920.33 768.5,1920C 804.679,1920.17 838.679,1911.83 870.5,1895C 900.861,1873.79 917.361,1844.62 920,1807.5C 920.5,1761.17 920.667,1714.83 920.5,1668.5C 802.89,1662.07 687.557,1642.57 574.5,1610C 513.127,1592.65 454.46,1568.65 398.5,1538C 348.973,1509.31 303.473,1475.14 262,1435.5C 242.927,1415.76 224.593,1395.43 207,1374.5C 185.726,1346.31 167.726,1315.98 153,1283.5C 140.249,1254.4 129.416,1224.74 120.5,1194.5C 120.59,1191.85 119.924,1189.51 118.5,1187.5C 118.5,1187.17 118.5,1186.83 118.5,1186.5C 118.397,1183.36 117.397,1180.7 115.5,1178.5C 112.834,1166.17 110.167,1153.84 107.5,1141.5C 107.247,1137.96 106.581,1134.63 105.5,1131.5C 105.5,1131.17 105.5,1130.83 105.5,1130.5C 105.841,1126.84 105.175,1123.51 103.5,1120.5C 100.632,1083.89 99.7989,1047.23 101,1010.5C 101.304,1006.45 101.804,1002.45 102.5,998.5C 103.972,994.081 104.638,989.414 104.5,984.5C 106.618,971.124 108.952,957.791 111.5,944.5C 113.19,935.979 115.19,927.646 117.5,919.5C 118.924,917.485 119.59,915.152 119.5,912.5C 129.287,880.237 142.454,849.237 159,819.5C 244.046,678.134 363.212,576.634 516.5,515C 618.157,473.252 723.491,445.252 832.5,431C 861.826,427.743 891.16,424.576 920.5,421.5C 920.961,373.474 920.461,325.474 919,277.5C 913.739,238.121 892.905,210.621 856.5,195C 835.495,187.109 813.828,182.109 791.5,180C 745.844,178.801 700.177,178.135 654.5,178C 645.521,176.353 639.687,171.186 637,162.5C 636.5,141.503 636.333,120.503 636.5,99.5C 911.5,99.5 1186.5,99.5 1461.5,99.5 Z"/></g>
<g><path style="opacity:1" fill="#c8c800" d="M 1461.5,99.5 C 1462.66,119.663 1462.83,139.996 1462,160.5C 1461.72,161.416 1461.22,162.082 1460.5,162.5C 1461.44,141.523 1461.78,120.523 1461.5,99.5 Z"/></g>
<g><path style="opacity:1" fill="#606000" d="M 1179.5,285.5 C 1178.54,329.82 1178.21,374.153 1178.5,418.5C 1177.34,376.002 1177.17,333.335 1178,290.5C 1178.2,288.618 1178.7,286.952 1179.5,285.5 Z"/></g>
<g><path style="opacity:1" fill="#fefe00" d="M 386.5,1225.5 C 386.59,1222.85 385.924,1220.51 384.5,1218.5C 379.273,1203.6 375.273,1188.26 372.5,1172.5C 372.324,1169.27 371.657,1166.27 370.5,1163.5C 369.566,1162.43 369.232,1161.1 369.5,1159.5C 369.932,1156.12 369.265,1153.12 367.5,1150.5C 364.404,1132.26 362.071,1113.93 360.5,1095.5C 359.846,1082.99 358.846,1070.66 357.5,1058.5C 356.175,1034.2 356.175,1009.86 357.5,985.5C 358.598,979.021 359.265,972.354 359.5,965.5C 361.025,935.342 365.358,905.676 372.5,876.5C 373.79,873.358 374.79,870.025 375.5,866.5C 376.409,859.859 378.076,853.526 380.5,847.5C 382.61,843.498 383.943,839.165 384.5,834.5C 417.111,735.725 477.778,659.225 566.5,605C 630.367,567.579 698.701,541.579 771.5,527C 820.696,516.662 870.362,509.829 920.5,506.5C 920.5,865.5 920.5,1224.5 920.5,1583.5C 817.764,1574.32 720.431,1546.48 628.5,1500C 573.396,1471.25 524.229,1434.41 481,1389.5C 438.786,1341.09 407.286,1286.43 386.5,1225.5 Z"/></g>
<g><path style="opacity:1" fill="#616100" d="M 1181.5,511.5 C 1180.5,511.5 1179.5,511.5 1178.5,511.5C 1178.5,868.833 1178.5,1226.17 1178.5,1583.5C 1177.5,1226 1177.17,868.334 1177.5,510.5C 1179.1,510.232 1180.43,510.566 1181.5,511.5 Z"/></g>
<g><path style="opacity:1" fill="#fefe00" d="M 1181.5,511.5 C 1275.64,518.575 1366.3,540.075 1453.5,576C 1505.28,599.038 1552.95,628.371 1596.5,664C 1643.63,705.741 1678.79,755.908 1702,814.5C 1706.14,825.081 1709.97,835.748 1713.5,846.5C 1713.41,849.152 1714.08,851.485 1715.5,853.5C 1715.72,857.162 1716.72,860.495 1718.5,863.5C 1722.28,876.299 1725.62,889.299 1728.5,902.5C 1728.34,905.187 1728.5,907.854 1729,910.5C 1729.38,911.056 1729.88,911.389 1730.5,911.5C 1736.21,943.365 1740.04,975.365 1742,1007.5C 1742.83,1032 1742.66,1056.34 1741.5,1080.5C 1740.21,1096 1739.21,1111.66 1738.5,1127.5C 1738.5,1129.17 1738.5,1130.83 1738.5,1132.5C 1737.2,1136.94 1736.53,1141.61 1736.5,1146.5C 1736.15,1153.96 1735.15,1161.3 1733.5,1168.5C 1732.04,1173.6 1731.38,1178.93 1731.5,1184.5C 1730.92,1187.88 1730.26,1191.21 1729.5,1194.5C 1728.34,1197.27 1727.68,1200.27 1727.5,1203.5C 1727.5,1204.5 1727.5,1205.5 1727.5,1206.5C 1726.08,1208.51 1725.41,1210.85 1725.5,1213.5C 1723.01,1225.11 1719.68,1236.45 1715.5,1247.5C 1714.13,1249.94 1713.13,1252.6 1712.5,1255.5C 1689.45,1325.79 1651.11,1386.29 1597.5,1437C 1555.31,1471.45 1508.64,1498.78 1457.5,1519C 1368.06,1555.59 1275.06,1577.09 1178.5,1583.5C 1178.5,1226.17 1178.5,868.833 1178.5,511.5C 1179.5,511.5 1180.5,511.5 1181.5,511.5 Z"/></g>
<g><path style="opacity:1" fill="#959500" d="M 384.5,834.5 C 383.943,839.165 382.61,843.498 380.5,847.5C 381.057,842.835 382.39,838.502 384.5,834.5 Z"/></g>
<g><path style="opacity:1" fill="#747501" d="M 1713.5,846.5 C 1714.92,848.515 1715.59,850.848 1715.5,853.5C 1714.08,851.485 1713.41,849.152 1713.5,846.5 Z"/></g>
<g><path style="opacity:1" fill="#949400" d="M 1715.5,853.5 C 1717.28,856.505 1718.28,859.838 1718.5,863.5C 1716.72,860.495 1715.72,857.162 1715.5,853.5 Z"/></g>
<g><path style="opacity:1" fill="#494907" d="M 375.5,866.5 C 374.79,870.025 373.79,873.358 372.5,876.5C 372.288,872.655 373.288,869.321 375.5,866.5 Z"/></g>
<g><path style="opacity:1" fill="#616101" d="M 1979.5,888.5 C 1980.92,890.515 1981.59,892.848 1981.5,895.5C 1980.08,893.485 1979.41,891.152 1979.5,888.5 Z"/></g>
<g><path style="opacity:1" fill="#929301" d="M 1728.5,902.5 C 1729.66,905.273 1730.32,908.273 1730.5,911.5C 1729.88,911.389 1729.38,911.056 1729,910.5C 1728.5,907.854 1728.34,905.187 1728.5,902.5 Z"/></g>
<g><path style="opacity:1" fill="#626201" d="M 119.5,912.5 C 119.59,915.152 118.924,917.485 117.5,919.5C 117.41,916.848 118.076,914.515 119.5,912.5 Z"/></g>
<g><path style="opacity:1" fill="#747401" d="M 1991.5,940.5 C 1993.77,945.451 1994.77,950.784 1994.5,956.5C 1993.09,951.37 1992.09,946.037 1991.5,940.5 Z"/></g>
<g><path style="opacity:1" fill="#959501" d="M 111.5,944.5 C 108.952,957.791 106.618,971.124 104.5,984.5C 104.167,984.5 103.833,984.5 103.5,984.5C 105.007,973.124 106.84,961.791 109,950.5C 109.037,948.026 109.87,946.026 111.5,944.5 Z"/></g>
<g><path style="opacity:1" fill="#6f6f01" d="M 359.5,965.5 C 359.265,972.354 358.598,979.021 357.5,985.5C 357.334,980.156 357.501,974.823 358,969.5C 358.21,967.942 358.71,966.609 359.5,965.5 Z"/></g>
<g><path style="opacity:1" fill="#343405" d="M 103.5,984.5 C 103.833,984.5 104.167,984.5 104.5,984.5C 104.638,989.414 103.972,994.081 102.5,998.5C 102.54,993.807 102.873,989.141 103.5,984.5 Z"/></g>
<g><path style="opacity:1" fill="#5c5c01" d="M 357.5,1058.5 C 358.846,1070.66 359.846,1082.99 360.5,1095.5C 358.326,1083.41 357.326,1071.08 357.5,1058.5 Z"/></g>
<g><path style="opacity:1" fill="#636302" d="M 1995.5,1082.5 C 1994.99,1089.46 1993.66,1096.13 1991.5,1102.5C 1992.29,1096.5 1993.12,1090.5 1994,1084.5C 1994.28,1083.58 1994.78,1082.92 1995.5,1082.5 Z"/></g>
<g><path style="opacity:1" fill="#717101" d="M 1741.5,1080.5 C 1741.33,1093.84 1740.83,1107.18 1740,1120.5C 1739.81,1123.04 1739.31,1125.37 1738.5,1127.5C 1739.21,1111.66 1740.21,1096 1741.5,1080.5 Z"/></g>
<g><path style="opacity:1" fill="#4f5004" d="M 103.5,1120.5 C 105.175,1123.51 105.841,1126.84 105.5,1130.5C 103.825,1127.49 103.159,1124.16 103.5,1120.5 Z"/></g>
<g><path style="opacity:1" fill="#7d7d01" d="M 105.5,1131.5 C 106.581,1134.63 107.247,1137.96 107.5,1141.5C 106.778,1141.08 106.278,1140.42 106,1139.5C 105.503,1136.85 105.336,1134.19 105.5,1131.5 Z"/></g>
<g><path style="opacity:1" fill="#4d4e07" d="M 1738.5,1132.5 C 1738.77,1137.43 1738.1,1142.1 1736.5,1146.5C 1736.53,1141.61 1737.2,1136.94 1738.5,1132.5 Z"/></g>
<g><path style="opacity:1" fill="#606003" d="M 1982.5,1144.5 C 1981.95,1147.75 1980.95,1150.75 1979.5,1153.5C 1979.45,1150.01 1980.45,1147.01 1982.5,1144.5 Z"/></g>
<g><path style="opacity:1" fill="#838301" d="M 367.5,1150.5 C 369.265,1153.12 369.932,1156.12 369.5,1159.5C 368.343,1156.73 367.676,1153.73 367.5,1150.5 Z"/></g>
<g><path style="opacity:1" fill="#969600" d="M 1979.5,1153.5 C 1979.59,1156.15 1978.92,1158.49 1977.5,1160.5C 1977.41,1157.85 1978.08,1155.51 1979.5,1153.5 Z"/></g>
<g><path style="opacity:1" fill="#787800" d="M 370.5,1163.5 C 371.657,1166.27 372.324,1169.27 372.5,1172.5C 370.882,1169.83 370.215,1166.83 370.5,1163.5 Z"/></g>
<g><path style="opacity:1" fill="#aeae00" d="M 1733.5,1168.5 C 1733.62,1174.07 1732.96,1179.4 1731.5,1184.5C 1731.38,1178.93 1732.04,1173.6 1733.5,1168.5 Z"/></g>
<g><path style="opacity:1" fill="#525204" d="M 115.5,1178.5 C 117.397,1180.7 118.397,1183.36 118.5,1186.5C 116.903,1184.15 115.903,1181.49 115.5,1178.5 Z"/></g>
<g><path style="opacity:1" fill="#777701" d="M 118.5,1187.5 C 119.924,1189.51 120.59,1191.85 120.5,1194.5C 119.076,1192.49 118.41,1190.15 118.5,1187.5 Z"/></g>
<g><path style="opacity:1" fill="#969600" d="M 1729.5,1194.5 C 1729.78,1197.83 1729.12,1200.83 1727.5,1203.5C 1727.68,1200.27 1728.34,1197.27 1729.5,1194.5 Z"/></g>
<g><path style="opacity:1" fill="#525202" d="M 1727.5,1206.5 C 1727.59,1209.15 1726.92,1211.49 1725.5,1213.5C 1725.41,1210.85 1726.08,1208.51 1727.5,1206.5 Z"/></g>
<g><path style="opacity:1" fill="#505104" d="M 384.5,1218.5 C 385.924,1220.51 386.59,1222.85 386.5,1225.5C 385.076,1223.49 384.41,1221.15 384.5,1218.5 Z"/></g>
<g><path style="opacity:1" fill="#4b4b06" d="M 1715.5,1247.5 C 1715.65,1250.72 1714.65,1253.38 1712.5,1255.5C 1713.13,1252.6 1714.13,1249.94 1715.5,1247.5 Z"/></g>
<g><path style="opacity:1" fill="#cbcb00" d="M 639.5,1933.5 C 639.005,1935.48 638.505,1937.48 638,1939.5C 637.5,1959.5 637.333,1979.5 637.5,1999.5C 636.337,1979.34 636.171,1959 637,1938.5C 637.099,1936.35 637.933,1934.68 639.5,1933.5 Z"/></g>
</svg>
