<?xml version="1.0" standalone="no"?>
<!DOCTYPE svg PUBLIC "-//W3C//DTD SVG 20010904//EN"
 "http://www.w3.org/TR/2001/REC-SVG-20010904/DTD/svg10.dtd">
<svg version="1.0" xmlns="http://www.w3.org/2000/svg"
 width="2100.000000pt" height="2100.000000pt" viewBox="0 0 2100.000000 2100.000000"
 preserveAspectRatio="xMidYMid meet">
<metadata>
Created by potrace 1.14, written by Peter Selinger 2001-2017
</metadata>
<g transform="translate(0.000000,2100.000000) scale(0.100000,-0.100000)"
fill="#000000" stroke="none">
<path d="M6362 19693 c3 -269 6 -313 21 -348 24 -54 54 -84 107 -109 44 -20
61 -21 700 -27 525 -5 681 -9 784 -23 485 -62 793 -193 984 -417 75 -89 162
-257 197 -381 51 -182 55 -256 55 -958 l0 -648 -27 -6 c-16 -2 -64 -8 -108
-11 -391 -30 -1051 -120 -1500 -206 -1443 -275 -2854 -813 -3801 -1450 -621
-418 -1188 -943 -1632 -1510 -497 -636 -817 -1243 -977 -1854 -132 -503 -178
-939 -156 -1467 23 -541 66 -793 227 -1318 205 -667 461 -1202 778 -1625 317
-423 785 -889 1231 -1225 757 -570 1494 -920 2615 -1244 1018 -294 1963 -453
3263 -552 l87 -6 0 -682 c0 -724 -4 -795 -51 -965 -11 -42 -45 -126 -74 -187
-181 -374 -536 -586 -1095 -654 -52 -6 -106 -14 -120 -17 -14 -3 -317 -8 -675
-11 -635 -7 -651 -7 -696 -28 -53 -25 -92 -72 -108 -129 -7 -25 -11 -154 -11
-337 l0 -298 4131 0 4131 0 -4 308 c-3 288 -4 310 -24 352 -25 53 -55 83 -109
107 -37 16 -95 18 -695 24 -524 5 -681 9 -784 23 -363 46 -630 132 -811 261
-68 48 -176 158 -225 230 -48 70 -115 219 -144 319 -51 176 -56 258 -56 1002
0 671 0 684 19 684 42 0 417 42 636 71 1246 165 2376 485 3450 978 968 445
1744 985 2421 1684 1157 1196 1745 2578 1675 3940 -7 122 -21 290 -31 374
-162 1262 -814 2354 -1980 3314 -1340 1103 -3054 1776 -5203 2044 -262 32
-630 68 -827 80 -52 3 -110 8 -127 11 l-33 5 0 632 c0 505 3 653 15 736 57
398 259 683 597 840 115 54 244 95 390 125 262 55 326 59 1018 65 631 6 646 6
691 27 53 25 92 72 108 129 7 25 11 154 11 338 l0 297 -4131 0 -4131 0 4 -307z
m2848 -9148 c0 -4664 -2 -5385 -14 -5385 -32 0 -343 42 -521 71 -1313 212
-2403 662 -3305 1363 -399 311 -721 662 -986 1076 -101 158 -108 170 -216 375
-116 220 -194 401 -280 655 -211 622 -310 1282 -311 2060 0 724 88 1323 278
1895 213 643 517 1149 960 1604 458 470 986 813 1685 1096 727 294 1560 473
2635 568 22 2 48 4 58 5 16 2 17 -260 17 -5383z m2990 5294 c796 -100 1526
-280 2170 -536 202 -80 556 -251 750 -362 264 -152 615 -394 825 -570 534
-449 918 -1037 1182 -1816 203 -600 296 -1235 295 -2030 0 -727 -68 -1342
-201 -1806 -73 -256 -234 -665 -361 -919 -201 -401 -490 -796 -801 -1095 -379
-364 -910 -675 -1661 -971 -737 -291 -1583 -481 -2535 -569 l-73 -7 0 5362 0
5363 88 -7 c48 -4 193 -20 322 -37z"/>
</g>
</svg>
